#Custom OBJ Export

#vertices
# format: 'v' x y z
v -1.935929 0.434823 -0.023322
v -1.065450 -0.237974 -0.023322
v -1.932874 -0.448206 -0.023322
v -0.850352 -0.684628 -0.023322
v -1.555549 -1.231731 -0.023322
v -0.854707 -1.790634 -0.023322
v -0.469092 -0.985783 -0.023322
v -0.006863 -1.984148 -0.023322
v -0.005078 -1.091691 -0.023322
v 0.469092 -0.985783 -0.023322
v 0.854707 -1.790633 -0.023322
v 0.850352 -0.684628 -0.023322
v 1.555549 -1.231731 -0.023322
v 1.063190 -0.247875 -0.023322
v 1.932874 -0.448205 -0.023322
v 1.065450 0.237974 -0.023322
v 1.935928 0.434824 -0.023322
v 0.850352 0.684628 -0.023322
v 1.546990 1.242462 -0.023322
v 0.854706 1.790634 -0.023322
v 0.469092 0.985783 -0.023322
v -0.006864 1.984148 -0.023322
v -0.005078 1.091691 -0.023322
v -0.867074 1.784678 -0.023322
v -0.478242 0.981376 -0.023322
v -0.850353 0.684628 -0.023322
v -1.555549 1.231730 -0.023322
v -1.065450 0.237973 -0.023322
v -1.065450 -0.237974 0.019978
v -1.935929 0.434823 0.019978
v -1.932874 -0.448206 0.019978
v -0.850352 -0.684628 0.019978
v -1.555549 -1.231731 0.019978
v -0.854707 -1.790634 0.019978
v -0.006863 -1.984148 0.019978
v -0.469092 -0.985783 0.019978
v 0.469092 -0.985783 0.019978
v 0.854707 -1.790633 0.019978
v 0.850352 -0.684628 0.019978
v 1.555549 -1.231731 0.019978
v 1.063190 -0.247875 0.019978
v 1.932874 -0.448205 0.019978
v 1.065450 0.237974 0.019978
v 1.935928 0.434824 0.019978
v 0.850352 0.684628 0.019978
v 1.546990 1.242462 0.019978
v 0.854706 1.790634 0.019978
v -0.006864 1.984148 0.019978
v 0.469092 0.985783 0.019978
v -0.867074 1.784678 0.019978
v -0.005078 1.091691 0.019978
v -0.850353 0.684628 0.019978
v -1.555549 1.231730 0.019978
v -1.065450 0.237973 0.019978
v -0.005078 -1.091691 0.019978
v -0.478242 0.981376 0.019978

#UV coordinates
# format: 'vt' u v
vt 0.928069 0.034471
vt 0.069688 0.965529
vt 0.928070 0.965529
vt 0.069688 0.034471

#normals
# format: 'vn' x y z
# should be normalized
vn -0.732761 0.164583 -0.660283
vn 0.632728 0.144416 -0.760789
vn -0.731613 -0.168318 -0.660615
vn 0.505930 0.405394 -0.761374
vn -0.587168 -0.468251 -0.660284
vn -0.325854 -0.676642 -0.660284
vn 0.280526 0.586000 -0.760204
vn -0.001298 -0.750724 -0.660615
vn 0.001511 0.649683 -0.760204
vn -0.278868 0.586032 -0.760789
vn 0.324809 -0.677467 -0.659952
vn -0.505521 0.407000 -0.760789
vn 0.587169 -0.468251 -0.660283
vn -0.632050 0.147357 -0.760789
vn 0.731613 -0.168317 -0.660615
vn -0.632392 -0.142793 -0.761374
vn 0.732759 0.165915 -0.659952
vn -0.505930 -0.405394 -0.761374
vn 0.586585 0.469448 -0.659952
vn 0.323511 0.677766 -0.660283
vn -0.278868 -0.586032 -0.760789
vn -0.002598 0.751012 -0.660283
vn 0.003019 -0.648993 -0.760789
vn -0.328193 0.675511 -0.660283
vn 0.283248 -0.584689 -0.760204
vn 0.507409 -0.404645 -0.760789
vn -0.588785 0.466217 -0.660283
vn 0.632728 -0.144416 -0.760789
vn 0.632728 0.144416 0.760789
vn -0.732761 0.164583 0.660283
vn -0.731613 -0.168318 0.660614
vn 0.505930 0.405394 0.761374
vn -0.587168 -0.468251 0.660283
vn -0.325854 -0.676643 0.660284
vn -0.001298 -0.750724 0.660615
vn 0.280526 0.586000 0.760204
vn -0.278868 0.586032 0.760789
vn 0.324809 -0.677467 0.659952
vn -0.505521 0.407000 0.760789
vn 0.587169 -0.468251 0.660283
vn -0.632049 0.147357 0.760789
vn 0.731613 -0.168317 0.660615
vn -0.632392 -0.142793 0.761374
vn 0.732758 0.165915 0.659953
vn -0.505930 -0.405394 0.761374
vn 0.586585 0.469448 0.659952
vn 0.323512 0.677766 0.660283
vn -0.002598 0.751012 0.660283
vn -0.278868 -0.586032 0.760789
vn -0.328193 0.675511 0.660283
vn 0.003019 -0.648993 0.760789
vn 0.507409 -0.404645 0.760789
vn -0.588785 0.466217 0.660283
vn 0.632728 -0.144416 0.760789
vn 0.001511 0.649683 0.760204
vn 0.283248 -0.584689 0.760204

#faces (index data)
# format: vertex/Uvcoordinate/normal
f 1/1/1 2/2/2 3/3/3
f 3/1/3 4/2/4 5/3/5
f 6/3/6 4/4/4 7/2/7
f 8/3/8 7/4/7 9/2/9
f 8/1/8 10/2/10 11/3/11
f 11/1/11 12/2/12 13/3/13
f 13/1/13 14/2/14 15/3/15
f 15/1/15 16/2/16 17/3/17
f 17/1/17 18/2/18 19/3/19
f 20/3/20 18/4/18 21/2/21
f 22/3/22 21/4/21 23/2/23
f 24/3/24 23/4/23 25/2/25
f 24/1/24 26/2/26 27/3/27
f 27/1/27 28/2/28 1/3/1
f 29/2/29 30/1/30 31/3/31
f 32/2/32 31/1/31 33/3/33
f 34/3/34 32/4/32 33/1/33
f 35/3/35 36/4/36 34/1/34
f 37/2/37 35/1/35 38/3/38
f 39/2/39 38/1/38 40/3/40
f 41/2/41 40/1/40 42/3/42
f 43/2/43 42/1/42 44/3/44
f 45/2/45 44/1/44 46/3/46
f 47/3/47 45/4/45 46/1/46
f 48/3/48 49/4/49 47/1/47
f 50/3/50 51/4/51 48/1/48
f 52/2/52 50/1/50 53/3/53
f 54/2/54 53/1/53 30/3/30
f 52/4/52 28/2/28 26/4/26
f 32/4/32 7/2/7 4/4/4
f 36/4/36 9/2/9 7/4/7
f 43/4/43 18/2/18 16/4/16
f 35/3/35 6/1/6 8/3/8
f 40/3/40 11/1/11 13/3/13
f 47/3/47 19/1/19 20/3/20
f 38/3/38 8/1/8 11/3/11
f 46/3/46 17/1/17 19/3/19
f 45/4/45 21/2/21 18/4/18
f 48/3/48 20/1/20 22/3/22
f 55/4/55 10/2/10 9/4/9
f 56/4/56 26/2/26 25/4/25
f 37/4/37 12/2/12 10/4/10
f 49/4/49 23/2/23 21/4/21
f 42/3/42 13/1/13 15/3/15
f 31/3/31 1/1/1 3/3/3
f 50/3/50 22/1/22 24/3/24
f 54/4/54 2/2/2 28/4/28
f 39/4/39 14/2/14 12/4/12
f 51/4/51 25/2/25 23/4/23
f 44/3/44 15/1/15 17/3/17
f 33/3/33 3/1/3 5/3/5
f 53/3/53 24/1/24 27/3/27
f 29/4/29 4/2/4 2/4/2
f 30/3/30 27/1/27 1/3/1
f 34/3/34 5/1/5 6/3/6
f 41/4/41 16/2/16 14/4/14
f 1/1/1 28/4/28 2/2/2
f 3/1/3 2/4/2 4/2/4
f 6/3/6 5/1/5 4/4/4
f 8/3/8 6/1/6 7/4/7
f 8/1/8 9/4/9 10/2/10
f 11/1/11 10/4/10 12/2/12
f 13/1/13 12/4/12 14/2/14
f 15/1/15 14/4/14 16/2/16
f 17/1/17 16/4/16 18/2/18
f 20/3/20 19/1/19 18/4/18
f 22/3/22 20/1/20 21/4/21
f 24/3/24 22/1/22 23/4/23
f 24/1/24 25/4/25 26/2/26
f 27/1/27 26/4/26 28/2/28
f 29/2/29 54/4/54 30/1/30
f 32/2/32 29/4/29 31/1/31
f 34/3/34 36/2/36 32/4/32
f 35/3/35 55/2/55 36/4/36
f 37/2/37 55/4/55 35/1/35
f 39/2/39 37/4/37 38/1/38
f 41/2/41 39/4/39 40/1/40
f 43/2/43 41/4/41 42/1/42
f 45/2/45 43/4/43 44/1/44
f 47/3/47 49/2/49 45/4/45
f 48/3/48 51/2/51 49/4/49
f 50/3/50 56/2/56 51/4/51
f 52/2/52 56/4/56 50/1/50
f 54/2/54 52/4/52 53/1/53
f 52/4/52 54/2/54 28/2/28
f 32/4/32 36/2/36 7/2/7
f 36/4/36 55/2/55 9/2/9
f 43/4/43 45/2/45 18/2/18
f 35/3/35 34/1/34 6/1/6
f 40/3/40 38/1/38 11/1/11
f 47/3/47 46/1/46 19/1/19
f 38/3/38 35/1/35 8/1/8
f 46/3/46 44/1/44 17/1/17
f 45/4/45 49/2/49 21/2/21
f 48/3/48 47/1/47 20/1/20
f 55/4/55 37/2/37 10/2/10
f 56/4/56 52/2/52 26/2/26
f 37/4/37 39/2/39 12/2/12
f 49/4/49 51/2/51 23/2/23
f 42/3/42 40/1/40 13/1/13
f 31/3/31 30/1/30 1/1/1
f 50/3/50 48/1/48 22/1/22
f 54/4/54 29/2/29 2/2/2
f 39/4/39 41/2/41 14/2/14
f 51/4/51 56/2/56 25/2/25
f 44/3/44 42/1/42 15/1/15
f 33/3/33 31/1/31 3/1/3
f 53/3/53 50/1/50 24/1/24
f 29/4/29 32/2/32 4/2/4
f 30/3/30 53/1/53 27/1/27
f 34/3/34 33/1/33 5/1/5
f 41/4/41 43/2/43 16/2/16
